<?xml version="1.0" standalone="no"?>
<!DOCTYPE svg PUBLIC "-//W3C//DTD SVG 20010904//EN"
 "http://www.w3.org/TR/2001/REC-SVG-20010904/DTD/svg10.dtd">
<svg version="1.0" xmlns="http://www.w3.org/2000/svg"
 width="200.000000pt" height="303.000000pt" viewBox="0 0 200.000000 303.000000"
 preserveAspectRatio="xMidYMid meet">
<metadata>
Created by potrace 1.16, written by Peter Selinger 2001-2019
</metadata>
<g transform="translate(0.000000,303.000000) scale(0.100000,-0.100000)"
fill="#000000" stroke="none">
<path d="M984 3019 c-7 -8 -15 -29 -19 -47 -4 -22 -13 -33 -28 -37 -36 -7
-106 -11 -104 -5 1 3 -7 20 -16 38 -14 26 -24 32 -50 32 -40 0 -218 -67 -235
-89 -7 -9 -12 -33 -10 -54 2 -33 -2 -40 -34 -62 -35 -24 -36 -24 -53 -5 -35
39 -62 26 -156 -72 -52 -54 -89 -101 -89 -113 0 -11 13 -33 28 -50 27 -28 28
-31 13 -57 -16 -29 -35 -36 -46 -18 -9 14 -57 12 -77 -4 -9 -7 -27 -39 -39
-72 -12 -32 -25 -63 -29 -69 -15 -19 -22 -83 -11 -103 5 -10 24 -25 41 -32 23
-10 30 -19 30 -40 0 -43 -10 -60 -34 -60 -12 0 -32 -7 -45 -17 -23 -16 -24
-18 -18 -132 4 -84 13 -137 31 -192 39 -121 110 -248 181 -326 19 -21 35 -41
35 -44 0 -14 177 -151 250 -195 l80 -47 0 -188 c0 -232 -10 -219 162 -219
l118 0 0 -34 c0 -30 -5 -37 -44 -57 -60 -32 -141 -110 -168 -162 -18 -34 -22
-59 -23 -132 0 -83 3 -95 33 -151 41 -76 100 -134 176 -173 52 -28 67 -31 147
-31 79 0 96 3 148 29 68 35 154 124 194 202 33 66 34 72 2 89 -22 12 -28 11
-48 -6 -49 -42 -91 -58 -154 -59 -75 0 -111 22 -132 82 -13 35 -12 44 4 88 14
36 29 55 63 76 24 15 57 31 73 34 l29 7 0 99 0 99 118 0 c171 0 162 -13 162
218 l0 187 71 39 c83 47 158 102 217 159 46 44 152 188 152 205 0 6 3 12 8 14
8 3 45 72 48 91 2 7 15 46 30 87 21 61 27 99 31 201 3 70 2 161 -2 204 -8 87
-26 115 -74 115 -25 0 -30 5 -38 39 -10 36 -9 40 23 65 48 38 45 64 -21 171
-17 28 -35 59 -41 70 -6 11 -23 27 -38 35 -24 14 -29 13 -69 -9 -23 -13 -39
-21 -35 -17 3 4 -10 22 -29 40 -32 29 -34 34 -20 48 27 27 32 66 11 90 -26 29
-190 138 -208 138 -28 0 -47 -13 -61 -40 l-14 -28 -53 20 -53 19 0 47 c0 40
-3 48 -26 59 -14 7 -78 16 -140 19 -91 5 -116 4 -125 -7z m182 -65 c40 -5 51
-10 48 -23 -1 -9 -5 -32 -8 -52 -4 -36 -3 -37 33 -43 21 -3 64 -17 95 -31 31
-14 60 -25 64 -25 5 0 18 18 31 40 14 26 27 38 34 33 7 -5 42 -28 79 -52 l67
-44 -21 -31 c-12 -17 -26 -32 -30 -34 -17 -7 -5 -28 31 -57 21 -16 47 -42 56
-56 33 -47 51 -52 92 -26 l37 24 49 -79 c27 -44 47 -81 45 -82 -1 -1 -20 -13
-40 -25 -42 -25 -43 -28 -27 -68 7 -15 17 -50 24 -78 11 -49 12 -50 53 -53 45
-3 42 3 56 -104 l5 -38 -123 0 -123 0 -6 46 c-2 25 -9 50 -13 54 -5 5 -83 -16
-173 -46 -155 -52 -169 -55 -250 -52 -74 3 -86 5 -89 21 -5 26 -41 66 -74 83
-35 18 -121 18 -156 0 -35 -18 -69 -56 -74 -81 -3 -17 -12 -20 -61 -23 l-57
-3 6 38 c7 44 5 46 -76 90 -30 17 -101 55 -157 86 -56 32 -104 57 -107 57 -5
0 -34 -62 -40 -85 -8 -30 -16 -67 -27 -122 l-13 -63 -84 0 -84 0 7 68 c13 119
14 112 -30 131 -43 17 -45 21 -28 61 6 14 19 44 28 67 l17 42 36 -15 c21 -9
42 -18 47 -20 6 -3 23 19 39 48 15 29 35 66 44 81 17 28 17 29 -21 60 l-37 32
68 68 68 67 34 -35 34 -35 23 29 c29 36 83 71 112 71 26 0 27 15 2 61 l-19 36
89 36 90 35 5 -26 c12 -60 20 -63 142 -50 120 12 122 13 122 82 0 28 1 29 43
22 23 -3 65 -9 93 -12z m-536 -834 c28 -15 44 -31 43 -40 -3 -13 -25 -15 -138
-12 -154 4 -139 -10 -114 104 l12 58 76 -42 c42 -23 96 -54 121 -68z m436 -32
c29 -13 46 -71 33 -108 -20 -55 -98 -79 -146 -45 -58 41 -46 145 19 164 34 9
59 7 94 -11z m-202 -148 c33 -75 142 -113 215 -75 33 16 77 65 86 95 6 20 15
20 391 20 359 0 384 -1 384 -17 0 -16 -26 -154 -34 -178 -1 -5 -6 -23 -11 -40
-11 -43 -96 -215 -106 -215 -5 0 -9 -6 -9 -14 0 -21 -124 -150 -198 -205 -120
-90 -276 -153 -450 -180 -97 -15 -150 -14 -255 4 -227 40 -401 127 -551 278
-66 66 -156 189 -155 211 0 5 -3 12 -8 15 -9 7 -48 92 -59 131 -4 14 -9 30
-11 35 -3 10 -19 97 -28 148 l-4 27 392 0 393 0 18 -40z m-19 -871 c100 -17
331 -7 425 19 42 12 82 23 90 27 13 4 15 -17 15 -150 l0 -155 -367 0 -368 0 0
159 0 158 68 -23 c38 -13 99 -28 137 -35z m275 -409 l0 -80 -42 -20 c-63 -30
-116 -84 -129 -132 -21 -81 13 -168 81 -203 62 -32 194 -10 254 43 18 17 18
16 1 -17 -20 -39 -25 -46 -84 -112 -103 -115 -260 -135 -387 -48 -69 47 -100
92 -144 207 -15 40 -8 118 16 163 28 54 105 129 161 155 l53 25 0 50 0 49 110
0 110 0 0 -80z"/>
<path d="M869 2680 c-47 -10 -104 -26 -125 -36 -56 -25 -166 -97 -189 -123
-20 -23 -20 -23 0 -37 27 -20 177 -148 237 -203 l48 -44 43 21 c23 12 49 23
58 26 13 3 17 26 22 112 9 144 9 304 0 303 -5 0 -47 -9 -94 -19z m31 -198 l0
-139 -26 -12 c-24 -11 -30 -8 -73 31 -26 24 -73 65 -105 92 -55 46 -57 50 -40
63 48 36 190 99 232 102 9 1 12 -33 12 -137z"/>
<path d="M1185 2643 c-4 -16 -10 -46 -15 -68 -8 -36 -17 -82 -26 -140 -11 -70
-23 -132 -29 -147 -4 -11 0 -18 14 -23 11 -3 41 -26 67 -51 25 -25 49 -44 53
-42 32 14 341 194 341 199 0 5 -13 22 -50 66 -5 7 -10 16 -11 20 0 12 -123
113 -172 143 -42 26 -142 70 -158 70 -5 0 -11 -12 -14 -27z m130 -97 c58 -33
175 -135 175 -153 0 -5 -30 -25 -67 -46 -38 -20 -90 -50 -118 -66 l-50 -30
-33 30 -33 29 17 78 c19 87 33 161 33 180 1 18 7 16 76 -22z"/>
<path d="M1413 1907 l-53 -42 0 -93 c0 -83 -2 -92 -15 -78 -8 8 -15 17 -15 19
0 9 -58 67 -67 67 -4 -1 -26 -16 -47 -35 -32 -28 -37 -37 -27 -49 11 -13 4
-15 -45 -18 l-58 -3 -28 -70 c-16 -38 -31 -78 -34 -87 -10 -29 -18 -21 -40 40
-12 31 -25 66 -30 77 -4 11 -8 25 -8 30 -1 6 -30 10 -66 10 l-65 0 -6 -40
c-12 -73 -28 -169 -39 -230 -6 -33 -13 -79 -16 -102 l-5 -43 58 0 58 0 13 65
c6 35 12 78 12 96 0 20 4 29 13 27 6 -3 12 -9 13 -14 0 -5 4 -18 8 -29 17 -44
20 -52 36 -95 14 -38 21 -45 46 -48 26 -3 32 2 46 35 18 43 31 76 33 83 0 3
10 25 21 50 l21 45 7 -75 c4 -41 8 -88 9 -105 2 -30 3 -30 65 -33 34 -2 62 -1
62 1 0 5 -29 214 -40 292 -6 39 -13 78 -16 88 -3 9 -3 17 -1 17 2 0 40 -44 84
-97 44 -54 92 -111 107 -128 14 -16 26 -33 26 -37 0 -17 22 -6 60 28 22 20 40
40 40 44 0 4 -14 22 -32 39 -17 17 -28 31 -23 31 5 0 -1 7 -13 16 -20 14 -33
42 -14 30 5 -3 48 -14 96 -25 l87 -19 52 46 c29 25 53 49 55 53 2 4 -12 10
-30 13 -18 3 -60 11 -93 17 -33 6 -77 14 -99 18 l-38 6 1 128 c1 70 -2 127 -6
127 -4 0 -32 -19 -60 -43z"/>
<path d="M570 1845 c-14 -25 -28 -45 -31 -45 -4 0 -12 -13 -19 -29 -6 -16 -19
-37 -29 -47 -9 -11 -30 -41 -46 -69 -16 -27 -34 -56 -41 -63 -13 -13 -28 -51
-22 -56 28 -24 137 -91 173 -107 41 -18 54 -20 84 -10 45 13 85 54 100 103 10
29 9 43 -3 72 -17 42 -29 55 -78 89 -29 19 -33 26 -24 39 11 14 20 11 81 -29
40 -27 71 -41 73 -35 2 6 14 27 28 47 27 41 28 45 13 45 -6 0 -45 23 -86 50
-41 28 -77 50 -80 50 -3 0 -16 9 -30 20 -14 11 -29 20 -32 20 -4 0 -17 -20
-31 -45z"/>
</g>
</svg>
